<?xml version="1.0" encoding="UTF-8" standalone="no"?>
<!-- Created with Inkscape (http://www.inkscape.org/) -->

<svg
   version="1.1"
   id="svg1"
   width="1823.4388"
   height="308.81815"
   viewBox="0 0 1823.4388 308.81815"
   sodipodi:docname="flourish.png"
   inkscape:version="1.4.2 (ebf0e940d0, 2025-05-08)"
   inkscape:dataloss="true"
   xmlns:inkscape="http://www.inkscape.org/namespaces/inkscape"
   xmlns:sodipodi="http://sodipodi.sourceforge.net/DTD/sodipodi-0.dtd"
   xmlns="http://www.w3.org/2000/svg"
   xmlns:svg="http://www.w3.org/2000/svg">
  <defs
     id="defs1" />
  <sodipodi:namedview
     id="namedview1"
     pagecolor="#ffffff"
     bordercolor="#000000"
     borderopacity="0.25"
     inkscape:showpageshadow="2"
     inkscape:pageopacity="0.0"
     inkscape:pagecheckerboard="0"
     inkscape:deskcolor="#d1d1d1"
     inkscape:zoom="0.47101221"
     inkscape:cx="1020.1434"
     inkscape:cy="236.72423"
     inkscape:window-width="1900"
     inkscape:window-height="1146"
     inkscape:window-x="0"
     inkscape:window-y="0"
     inkscape:window-maximized="0"
     inkscape:current-layer="g1">
    <inkscape:page
       x="0"
       y="0"
       width="1823.4388"
       height="308.81815"
       id="page2"
       margin="0"
       bleed="0" />
  </sodipodi:namedview>
  <g
     inkscape:groupmode="layer"
     inkscape:label="Image"
     id="g1"
     transform="translate(-6.9640724,-452.25399)">
    <path
       style="fill:#111110;stroke:none"
       d="m 509.63076,473.10979 c 23.6016,2.49563 47.51453,-3.53725 70.66667,-7.41976 23.87996,-4.00455 47.81291,-5.97847 72,-6.30039 28.94711,-0.38527 57.28353,3.11471 85.33334,10.21914 14.26155,3.61216 28.22811,10.34979 42.66667,12.83435 -14.15577,-11.72927 -35.80494,-16.90349 -53.33334,-21.1605 -49.7828,-12.09044 -104.41293,-11.04027 -154.66667,-2.73251 -15.55062,2.57078 -31.0066,5.80526 -46.66667,7.68622 -6.10991,0.73387 -13.68388,0.28117 -16,6.87345 m 592.00004,-4 c 29.2893,-2.33093 55.549,-8.61147 85.3333,-4.95164 26.566,3.26439 53.155,8.94993 80,8.95164 10.7807,7e-4 22.0641,0.809 32,-4 -9.9905,-8.69753 -33.9311,-6.66176 -46.6667,-6.66666 -35.5484,-0.0137 -70.9757,-4 -106.6666,-4 -12.1559,0 -37.1148,-1.42509 -44,10.66666 m -204.00002,92 c 10.52083,-7.43156 18.87068,-18.87066 28,-28 10.68221,-10.68221 24.01261,-22.16337 28.09668,-37.33333 4.16691,-15.47774 -6.72258,-28.98952 -22.76335,-27.87038 -8.2513,0.57568 -15.38908,5.21033 -21.33333,10.66152 -3.08374,2.82798 -7.34823,9.13448 -12,9.13478 -4.95915,3.1e-4 -9.71168,-7.10142 -13.33334,-9.88682 -11.97095,-9.20678 -31.86662,-10.68375 -36.58952,7.29423 -7.49731,28.53882 33.7627,57.48782 49.92286,76 m 189.33332,-92 v 4 l 2.6667,-4 h -2.6667 m -38.6667,6.66667 4,-2.66667 -4,2.66667 m 254.6667,2.66667 c 6.8791,21.5887 32.2184,39.81164 54.6667,40 v -2.66667 c -24.7733,-3.71324 -32.6471,-31.60714 -54.6667,-37.33333 m -405.33332,38.66666 h 2.66666 c 4.82145,-11.58056 11.88428,-26.29537 22.6862,-33.37345 5.19808,-3.40609 14.34741,-6.31816 18.40845,0.34464 3.42684,5.62234 0.48112,13.41952 -2.76025,18.36215 -8.11264,12.37052 -23.31983,28.65411 -35.66773,36.83128 -6.9266,4.58701 -12.81437,-4.45976 -17.33334,-8.77881 -8.64379,-8.26144 -35.47412,-28.83553 -26.42692,-43.74795 3.73324,-6.15348 11.03573,-3.24422 15.76026,-0.15946 10.12231,6.60917 19.03125,19.03727 22.66667,30.5216 m -502.66669,34.66667 c 5.20634,9.95203 21.87378,10.56521 32,11.79321 30.28288,3.67239 60.11873,8.20679 90.66667,8.20679 90.21696,0 180.23943,-10.55172 265.33334,28.41152 29.04566,13.29958 64.3392,30.22304 83.03801,56.92181 5.65243,8.07068 11.50139,17.06356 14.1451,26.66667 0.89738,3.25956 0.93173,8.86678 -3.54321,9.62345 -6.67228,1.12825 -18.62695,-24.66756 -22.5319,-29.62345 -18.30347,-23.2297 -46.05363,-38.97986 -73.77466,-48 5.16894,7.05053 17.8466,10.57263 25.33333,15.23354 19.56291,12.17905 34.27865,28.40181 47.10702,47.43312 5.24764,7.78506 11.70491,15.49058 10.22632,25.33334 -18.28467,-14.35861 -21.88168,-42.69139 -49.33334,-48 11.04256,13.65181 25.36882,22.2314 33.58643,38.66666 2.56348,5.12698 6.81136,13.36137 0.8632,17.7181 -7.44629,5.45404 -22.56869,-12.25704 -29.11629,-16.29834 -27.07854,-16.7134 -59.61858,-25.02549 -90.66668,-30.41976 -79.34814,-13.78587 -160.83448,-6.0464 -240.00001,5.36113 l -84,12 c -17.89567,2.55684 -38.11967,6.5625 -56,2.30554 6.0155,-9.75663 14.75989,-32.80058 24.35083,-38.62964 11.4978,-6.98799 37.99703,-4.96574 51.64917,-7.25513 43.71721,-7.33121 88.80278,-20.65899 133.33334,-20.7819 v -1.33333 c -19.23722,-3.57141 -39.47766,-0.20249 -58.66667,2.29114 -41.75789,5.42651 -83.40792,17.06675 -125.33334,20.37553 1.14722,-6.29881 -1.39717,-18.73275 -9.80143,-10.08745 -6.89771,7.09554 -7.64026,20.09733 -12.02987,28.75411 -7.2572,14.31206 -19.10724,25.24569 -27.50203,38.66667 11.40743,3.86165 21.69425,1.64252 33.33333,1.35288 29.30188,-0.72916 59.10214,-6.62207 88.00001,-11.46812 55.43221,-9.29571 110.49109,-15.21809 166.66667,-15.21809 24.75358,0 52.00558,-1.40955 76,5.33333 v 1.33333 c -58.49874,4.61678 -117.55709,0.6272 -176,6.88786 -42.93071,4.59892 -83.11638,19.34825 -125.33334,26.95988 -29.51836,5.3221 -54.78423,2.18677 -84.00001,0.95988 -6.21649,-0.26107 -16.37555,5.19924 -10.95268,12.66666 6.51414,8.97014 27.9185,7.19239 37.61935,7.19239 37.66931,0 72.66769,-6.07739 109.33334,-14.50822 60.57495,-13.92853 120.91789,-20.04924 182.66667,-24.27779 40.64209,-2.78316 82.25489,-4.74654 122.66668,2.03292 29.67334,4.97798 54.60807,17.92742 82.66667,27.41975 -7.90121,18.72488 9.75765,26.96525 25.33333,31.43004 31.66927,9.07804 65.85506,7.02878 97.33334,-2.09774 11.85954,-3.43844 27.74129,-8.49432 35.55656,-18.71914 3.33089,-4.35789 1.82967,-9.79494 5.99381,-13.70575 9.99295,-9.38509 26.89425,-13.99279 39.78295,-17.67079 105.532,-30.11517 214.5861,-6.60622 320,11.32202 33.1605,5.63977 66.487,14.50639 100,17.44136 9.208,0.80642 27.6651,5.32174 33.036,-5.47222 2.883,-5.79395 -2.6388,-9.13259 -7.7079,-9.52263 -21.0778,-1.62191 -40.4414,-2.71203 -61.3281,-7.51336 -73.4507,-16.88444 -151.568,-27.5649 -226.6667,-33.49178 v -1.33334 c 68.3305,0 136.2778,5.3914 204.0001,14.66667 16.2613,2.22715 34.2529,6.35805 50.6666,5.21399 5.0967,-0.35525 14.2611,-1.10087 17.2707,-5.95783 2.1198,-3.42108 -0.4201,-7.14799 -2.4198,-9.92283 -6.1893,-8.58821 -13.2741,-25.03145 -21.7645,-31.01029 -7.0629,-4.97359 -14.0843,0.41671 -10.18,8.34363 3.9209,7.96047 11.7305,11.9991 13.0936,21.33333 -42.8665,1.83581 -86.5943,-10.3044 -129.3333,-14.44033 -65.6807,-6.35604 -132.9812,-6.25515 -198.6667,0 -33.1006,3.15212 -68.6399,5.83722 -100,17.67387 -8.9198,3.36674 -17.74844,7.619 -25.33332,13.47119 -4.96891,3.8338 -7.98324,8.90302 -14.66667,7.29527 20.73202,-30.72683 49.77919,-42.84383 83.99999,-53.36625 67.1144,-20.63672 146.9499,-19.36041 216,-10.63375 v -1.33333 c -23.2822,-9.88865 -53.7843,-9.33334 -78.6667,-9.33334 -56.4588,0 -111.8884,3.42054 -165.3333,23.57923 -16.3354,6.16152 -33.54068,14.7762 -46.54735,26.54113 -4.56966,4.13345 -12.10287,17.5187 -18.72632,17.41875 -7.87695,-0.1189 -2.52197,-9.92223 -0.37345,-12.87244 7.68546,-10.55328 18.3824,-19.06234 29.64713,-25.50309 34.78649,-19.88953 78.40669,-32.83026 118.66669,-33.16358 v -1.33333 c -39.0674,-9.30125 -92.9149,9.33781 -125.33335,30.67078 -10.04419,6.60962 -19.82854,13.80226 -26.53191,23.9969 -2.14225,3.25802 -4.72428,11.59147 -9.44344,11.7428 -6.03841,0.19367 -2.91439,-7.82454 -1.47941,-10.43003 4.92009,-8.93321 13.40088,-16.68299 21.45476,-22.78087 27.54785,-20.8575 60.65375,-26.53401 91.99995,-38.53291 v -1.33334 c -33.9824,0.70144 -71.20438,16.46141 -97.33329,37.68107 -9.90788,8.04637 -17.98983,16.32015 -24.01953,27.64608 -1.89225,3.55432 -4.54338,7.94729 -9.29834,6.81893 -17.95142,-4.25985 0.64868,-32.29927 6.88265,-38.58537 24.13167,-24.33355 62.87192,-42.23116 94.43521,-54.62347 80.5378,-31.62058 173.7131,-25.6039 258.6667,-25.6039 24.4947,0 48.8052,-1.45062 73.3333,-1.33232 11.0985,0.0535 22.6206,3.92224 33.3334,-10e-4 -4.8529,-8.64895 -11.5526,-5.75572 -20,-5.38581 -14.2347,0.62331 -28.4038,1.38581 -42.6667,1.38581 v -1.33334 c 20.0371,-3.72217 44.2311,-2.74754 62.6667,-12 -4.5446,-8.44291 -13.2221,-6.14103 -21.3334,-4.97221 -18.6606,2.68893 -37.28,4.29773 -56,6.07921 -47.2825,4.49959 -92.887,-1.26654 -140,-2.42078 -32.323,-0.79189 -63.8944,4.65112 -96,5.31378 v -1.33333 c 28.4019,-0.58622 56.7813,-6.28215 85.3333,-6.64197 47.3095,-0.59621 94.0944,2.9667 141.3334,-3.2572 17.8699,-2.35443 35.668,-4.10392 53.3333,-8 3.8169,-0.8418 16.8286,-2.19893 14.9981,-8.53499 -2.1268,-7.36139 -24.0258,-2.07351 -29.6647,-1.68518 -30.6985,2.11407 -61.2596,6.72078 -92.0001,8.06687 -39.1672,1.71509 -78.2953,-6.9353 -117.3333,-5.22839 -75.679,3.309 -154.75642,32.74115 -210.61417,85.5072 -8.74194,8.25803 -14.96753,18.68473 -22.71915,27.77366 0,-12.63574 2.52986,-28.14396 -8,-37.33334 l 2.66666,57.33334 h -1.33333 c -9.47372,-48.82263 -62.3195,-79.59428 -105.33334,-96.80042 -50.68921,-20.27638 -103.55681,-23.5639 -157.33334,-25.91872 -36.72648,-1.60821 -73.93982,-2.3432 -110.66667,0.17182 -25.27043,1.73049 -50.64059,5.21399 -76,5.21399 15.60306,-21.13823 49.2122,-30.4312 56,-58.66667 -12.56071,-2.76617 -25.26937,21.29433 -33.33334,29.33232 -22.08773,22.01652 -46.61218,34.78509 -77.33333,38.66768 m 632.88891,-67.55556 0.8889,0.44446 -0.8889,-0.44446 m -10.2222,3.55556 v 1.33333 l 6.6666,-4 -6.6666,2.66667 m -12,2.66667 1.3333,4 h 2.6667 l 1.3333,-4 h -5.3333 m -14.66669,6.66666 v 2.66667 h 4 v -2.66667 h -4 m 605.33339,88 c 9.332,-18.27974 24.083,-30.95762 23.0009,-53.33333 -0.3903,-8.06995 -2.0133,-16.17434 -9.6676,-20 -6.5433,15.50665 -0.8071,33.05113 -8.4312,49.33333 -19.0026,40.58285 -74.1836,55.97258 -115.5688,56 7.1968,-10.00443 18.894,-16.08551 27.7736,-24.56687 11.8389,-11.30788 20.7902,-25.2773 26.0031,-40.76646 2.1269,-6.31989 11.2283,-37.15251 -5.7777,-30.52161 -19.2023,7.48725 -33.7861,33.73544 -40.7181,51.85494 -5.334,13.94263 -5.5389,25.03209 -19.2809,33.93622 -11.242,7.28424 -29.0233,14.8267 -42.6657,10.52675 -8.7936,-2.77168 -12.8148,-21.10241 -22.6676,-13.7963 h -1.3334 c -5.8568,-5.49325 -14.9741,-5.32097 -22.6666,-5.33334 -16.4415,-0.0264 -32.8933,0.19043 -49.3334,-0.005 -49.5241,-0.58917 -97.022,-5.18396 -146.6667,-0.22016 -18.3277,1.83254 -38.4341,2.27881 -56,8.2253 v 1.33334 c 31.1397,-1.33704 62.1363,-5.88283 93.3334,-6.64712 39.4287,-0.96594 79.3885,2.50469 118.6667,5.19444 14.6189,1.0011 29.3317,1.45833 44,1.45268 5.5564,-0.002 13.2096,-2.32825 18.4742,-1.05864 4.5409,1.09506 5.2067,7.00611 7.7284,10.24793 3.3309,4.28239 8.6271,6.34863 13.7974,7.45371 15.6985,3.35533 30.6661,-0.63901 46.6666,3.92694 10.7572,3.06971 21.2901,7.14807 29.1019,15.48356 21.8797,23.34622 23.8776,55.43553 60.2315,63.67078 5.8007,1.31402 15.3068,8.23297 21.0288,6.07922 12.7677,-4.80584 -3.6413,-32.02026 -8.0144,-37.8035 -21.9816,-29.06995 -50.6696,-38.59544 -83.6811,-49.33334 v -1.33333 c 30.0293,0 60.8044,0.93184 90.6667,3.77366 16.198,1.54149 29.3717,-0.22988 44,8.84979 26.1915,16.25694 30.7988,51.62716 62.6666,62.19033 19.0964,6.32985 39.5492,0.71702 58.6667,-2.24794 5.4901,-0.85147 20.384,-0.78899 17.5988,-9.91976 -3.0381,-9.96039 -18.4522,-18.52718 -26.9321,-23.40843 -20.9598,-12.06484 -44.7071,-18.32363 -68,-24.072 -12.9742,-3.20182 -30.4423,-5.01794 -40,-15.16565 20.4353,-1.61277 40.9052,-10.99658 61.3333,-10.59464 30.7288,0.60461 53.6287,15.19755 84,-0.41771 18.687,-9.60781 28.7578,-26.97758 43.9948,-40.60699 3.1574,-2.82428 14.5229,-13.20652 5.14,-15.95577 -9.32,-2.7308 -22.264,2.80204 -31.8015,3.45577 -21.0879,1.44543 -41.5096,-2.01693 -61.3333,7.44238 -18.6458,8.89728 -30.75,26.75724 -49.3333,35.63066 -32.0334,15.29573 -70.7556,14.37963 -105.3334,14.37963 -12.8301,0 -26.0408,3.00594 -38.6666,0 21.4196,-10.75236 47.5527,-23.47257 70.6666,-30.09672 34.2912,-9.82739 63.2214,-10.19537 92,-34.48866 12.458,-10.51636 21.2751,-23.29228 27.8138,-38.08128 1.6016,-3.62213 7.4667,-12.40944 3.3282,-15.96295 -8.3386,-7.15987 -32.2824,4.08362 -40.4753,7.5895 -40.3485,17.26587 -59.5117,57.85251 -97.3333,77.70678 M 290.96408,622.44312 c -11.973,0 -24.09053,-2.02954 -36,-1.21399 -30.13377,2.06356 -57.38416,7.02523 -86.66667,-3.24589 -23.45084,-8.2256 -31.77702,-32.91109 -53.33334,-45.3858 C 85.142614,555.33965 40.504144,557.10979 6.9640724,557.10979 c 3.0678856,6.52423 9.0599726,10.26551 13.2798366,16.01955 19.883576,27.11249 42.623324,45.72333 77.386834,49.08745 14.795117,1.43174 29.530357,-5.84841 43.999997,-3.33539 12.8593,2.23333 25.00175,10.05662 37.33334,14.22839 v 2.66667 c -15.92264,7.1037 -31.00415,4.72029 -48,4.94649 -31.397867,0.41793 -69.759852,3.71419 -95.998979,22.95679 -20.3995,14.96008 -3.895492,22.35412 11.998973,27.65228 23.245663,7.74855 50.449821,16.28456 74.666666,7.71399 19.00179,-6.72492 26.48158,-22.47911 38.91255,-36.60289 12.70259,-14.43239 34.71225,-28.43278 54.42079,-29.33333 -11.72304,17.79972 -16.34558,34.52675 -11.99485,56 1.0842,5.35122 3.02638,19.30562 10.69958,18.89095 7.82404,-0.42283 12.09465,-12.90751 14.32304,-18.89095 6.77047,-18.17942 5.95756,-41.93634 24.30556,-53.34054 33.44505,-20.78775 61.36447,10.65269 93.33334,10.67387 -4.16943,-14.50695 -25.39838,-14.74853 -32.57511,-28.00514 -4.06057,-7.50055 -2.75881,-15.90037 -3.81069,-23.99485 -1.97549,-15.20183 -8.21053,-38.91455 -19.13066,-50.24178 -7.92867,-8.22427 -12.06189,4.11031 -13.02985,10.24178 -2.54128,16.09741 1.31859,31.07031 4.54631,46.66666 -15.0966,-1.23307 -40.8903,-6.42574 -53.18929,-15.60288 -9.226,-6.88416 -13.90438,-23.36745 -21.85908,-32.3961 -13.97994,-15.86735 -35.06962,-26.81728 -54.28497,-35.04114 -12.58193,-5.38487 -25.53585,-9.19759 -38.66667,-12.95988 -3.77393,-1.08132 -10.4959,-4.00704 -13.804517,-0.50925 -3.707677,3.91963 1.391197,10.5156 3.616247,13.84259 8.13313,12.16099 18.83865,23.08252 30.18827,32.26029 29.45638,23.81966 62.84127,34.79205 98.66667,45.07304 19.5437,5.60854 45.99726,9.06406 58.66667,26.66666 M 805.63077,503.77646 v 2.66667 h 2.66667 v -2.66667 h -2.66667 m 157.33334,16 c 8.89567,-0.91117 17.01302,-5.38668 21.33334,-13.33333 -9.47413,0.83237 -16.84807,4.76452 -21.33334,13.33333 m -145.33334,-9.33333 4,-2.66667 -4,2.66667 m 900.00003,2.66666 c -3.1105,30.36192 -49.4938,67.26294 -80,60 12.0457,-25.8374 52.998,-52.6147 80,-60 m -892.00003,1.33334 v 2.66666 h 2.66667 l -2.66667,-2.66666 m 8,5.33333 c 3.57007,13.72687 21.67985,25.25273 31.87452,34.51235 4.11295,3.7357 5.39412,9.04903 10.79215,10.82098 -2.43717,-15.53515 -28.91227,-39.20298 -42.66667,-45.33333 m 90.66667,41.33333 c 5.61345,-2.76102 7.37761,-7.27425 11.1862,-11.98045 6.53638,-8.07688 27.17782,-18.46592 26.14714,-29.35288 -15.73251,7.85842 -29.90487,25.63053 -37.33334,41.33333 m -720.00003,13.33334 c -8.57249,-0.43999 -16.25136,-4.364 -24,-7.81482 -20.25867,-9.02212 -50.10219,-22.07849 -58.66667,-44.18518 10.59418,0.48525 20.00992,5.67633 29.33334,10.33744 19.72021,9.85885 43.9141,20.21533 53.33333,41.66256 m 686.6667,113.33333 h -1.33334 c -8.67716,-16.46371 -12.77815,-33.67401 -25.56477,-48 C 837.3343,609.82659 797.51472,592.02379 760.29744,578.85464 701.19742,557.94241 643.26211,557.10979 581.63076,557.10979 H 438.96409 c 5.89677,-8.60732 22.79358,-5.33333 32,-5.33333 29.77234,0 59.52043,-2.66667 89.33334,-2.66667 29.64787,0 59.61051,-3.24937 89.33333,-1.21399 57.4795,3.93614 112.85792,17.75287 164.00001,44.81688 40.53492,21.45076 77.33334,45.19327 77.33334,95.06378 M 1528.2975,550.44313 c -1.3929,10.33461 -4.6608,19.07708 -13.3334,25.33333 l 13.3334,-25.33333 m -445.3334,2.66666 v 1.33334 h -6.6667 l 6.6667,-1.33334 m -8,1.33334 v 1.33333 h -4 l 4,-1.33333 m -6.6667,1.33333 v 1.33333 h -4 l 4,-1.33333 m -5.3333,1.33333 v 1.33334 h -4 l 4,-1.33334 m -5.3333,1.33334 v 1.33333 h -4 l 4,-1.33333 m -5.3334,1.33333 c -12.1785,7.44033 -28.2883,10.03271 -41.3333,16.34464 -29.57673,14.311 -55.39664,35.0625 -75.71809,60.98869 -8.2828,10.56726 -14.44059,22.65747 -16.45573,36 -0.36556,2.42065 -0.86572,10.23987 -4.93213,9.43827 -4.66007,-0.91858 -2.98063,-12.87146 -2.66772,-16.10494 1.52897,-15.7996 8.12972,-31.59806 17.99902,-43.99485 10.34278,-12.99153 26.10214,-21.87095 40.44133,-29.74589 25.21444,-13.84751 53.76622,-29.03414 82.66662,-32.92592 m -763.99998,4 c 11.71264,12.35353 15.07194,26.11999 12,42.66666 -11.92572,-6.38688 -22.53728,-31.42104 -12,-42.66666 m 632.00002,6.66667 -9.33333,18.66666 c 7.03402,-2.08242 13.70247,-11.7632 9.33333,-18.66666 m -882.666699,2.66666 c 22.057709,-5.25148 52.835461,1.21525 71.999999,12.82099 6.60836,4.00191 21.42514,12.89898 15.41667,22.60083 -4.00719,6.47039 -17.38934,2.35642 -23.41667,1.94443 -22.963188,-1.56956 -56.708861,-12.81858 -63.999999,-37.36625 m 845.333369,2.66667 v 2.66667 h 2.66666 v -2.66667 h -2.66666 m 917.33339,0 c -7.1172,20.93312 -40.8329,34.4506 -61.3334,34.66152 -7.8208,0.0805 -22.4603,0.74717 -25.3333,-7.99486 26.5262,-14.70949 55.8591,-26.66666 86.6667,-26.66666 m -496.0001,6.66667 c 6.9504,2.91646 16.4547,2.11962 24.0001,3.0463 17.6692,2.17004 35.5774,4.7864 53.3333,6.04114 4.7217,0.33366 24.4323,-0.10744 20.9918,-8.91048 -2.9596,-7.57272 -17.8544,-3.35193 -23.6585,-2.84363 -24.9994,2.18939 -49.5384,2.66667 -74.6667,2.66667 m -813.33331,0 v -2.66667 c -29.92004,1.28465 -59.2891,6.67824 -89.33334,6.66667 -5.26859,-0.002 -27.15226,-4.93653 -27.15226,4.06685 0,9.38802 21.90715,4.00069 27.15226,3.93829 30.67892,-0.36499 59.18352,-8.11151 89.33334,-12.00514 m 601.33331,13.33333 v 1.33333 l 160,-14.66666 c -13.5167,-5.67184 -37.5791,-1.5987 -52,-0.22634 -37.0374,3.52461 -71.79,3.28013 -108,13.55967 m 168,-14.66667 v 2.66667 h 16 v -2.66667 h -16 m -369.33329,2.66667 4,9.33333 -4,-9.33333 m -264.00001,2.66667 v 1.33333 c 39.51115,0.81551 81.06502,10.58396 118.66667,21.33333 -5.34278,-9.23854 -18.23421,-11.55973 -28,-13.79836 -19.44328,-4.45701 -38.91692,-5.88057 -58.66667,-7.76131 -9.99186,-0.95152 -22.20105,-3.23008 -32,-1.10699 m -260.00001,29.33333 c 34.61987,-3.01872 69.81673,-9.31755 104,-16.26542 8.69238,-1.76677 29.29509,-2.01162 34.66667,-9.06791 -31.80319,0.021 -64.43339,5.34918 -96.00001,9.12654 -15.28686,1.82928 -32.19323,3.53429 -42.66666,16.20679 m 73.33333,2.66666 v 1.33334 c 30.32414,-0.25106 61.41256,-11.11939 92.00001,-13.21399 67.64978,-4.63263 136.72774,1.23812 204,6.54732 -16.60937,-13.27295 -49.14591,-11.32425 -69.33333,-13.71399 -47.92705,-5.67348 -97.53077,-2.87968 -145.33334,2.84054 -26.97058,3.22737 -55.76571,6.56105 -81.33334,16.20678 m 249.33335,-1.33333 c 6.33333,8.32843 27.57674,7.13536 37.33333,8.38066 32.0481,4.09051 63.1447,20.39404 94.66667,23.61934 -8.40348,-10.14164 -23.82406,-15.0556 -36,-19.11112 -31.42627,-10.46733 -63.09701,-12.88888 -96,-12.88888 m 530.66663,1.33333 v 1.33334 c 16.6153,4.92224 36.1273,2.94108 53.3334,4.11934 27.556,1.88703 55.1745,5.3571 82.6667,8.10596 20.1534,2.01509 45.8499,8.40462 65.3333,1.10803 v -2.66667 c -16.0723,-7.73453 -43.4528,-2.88798 -61.3333,-4.11934 -47.2981,-3.25724 -92.5566,-7.88066 -140.0001,-7.88066 m -817.33331,37.33334 v 1.33333 l 168,-29.33333 c -5.29528,-8.13672 -32.42326,-0.30082 -41.33333,0.97221 -40.30148,5.75809 -89.88705,8.4675 -126.66667,27.02779 m 144,-16 c 6.67371,4.5593 15.09896,1.81718 22.66667,1.30041 20.09981,-1.37256 39.88151,-6.47003 60,-7.84774 40.69788,-2.78696 82.82968,0.95116 122.66668,10.39301 18.83488,4.46409 38.35026,15.5851 57.33333,17.48765 -15.67025,-14.67094 -44.74227,-22.01473 -65.33333,-26.13375 -46.20744,-9.24328 -95.93979,-9.75669 -142.66668,-4.75411 -17.84464,1.91044 -37.79224,3.18842 -54.66667,9.55453 M 245.63075,629.10979 c -1.61255,8.33891 -7.55272,14.89636 -10.83232,22.66667 -3.55575,8.42456 -5.76605,34.1467 -17.37858,35.91975 -10.92426,1.66797 -9.48798,-22.00724 -8.53601,-27.91975 3.27577,-20.34538 16.89191,-30.65353 36.74691,-30.66667 m 1500.00005,58.66667 c -31.7692,7.56359 -85.1818,-4.88558 -92,-42.66667 23.8929,4.94474 48.2041,15.15035 69.3333,27.23661 7.757,4.43718 16.9209,8.49589 22.6667,15.43006 m -1237.33338,-30.66667 8.00001,-1.33333 c -3.53646,-2.56372 -5.59209,-2.35153 -8.00001,1.33333 m 13.33334,-4 v 2.66667 h 4 v -2.66667 h -4 m 1005.33334,0 c 13.6499,3.82231 27.4131,20.8323 35.4291,32 1.8613,2.59324 9.4194,11.41801 5.0411,14.4897 -4.6549,3.26579 -12.3478,-5.06579 -15.0844,-7.84362 -9.8557,-10.00407 -22.6594,-24.50729 -25.3858,-38.64608 m -1373.33336,1.33333 c -5.99254,44.86912 -69.786985,35.47496 -98.666665,28 24.795736,-20.54524 67.556525,-28 98.666665,-28 m 212.00001,25.33334 122.66667,-21.33334 c -6.93701,-2.70764 -16.66133,0.6293 -24,1.21914 -23.59749,1.89667 -47.55041,4.71865 -70.66667,9.91359 -8.61503,1.93604 -22.76265,2.29796 -28,10.20061 m 593.33336,33.33333 c -21.71964,6.10362 -45.68897,7.10534 -68,10.77366 -13.20874,2.17173 -27.05795,6.07322 -40,1.22634 15.09245,-19.231 58.04484,-29.51697 81.33333,-25.87964 10.14722,1.58486 21.7828,3.89242 26.66667,13.87964 m 2.66667,13.33333 c -4.14006,7.98808 -14.54574,12.02435 -22.66667,15.08744 -20.16463,7.60584 -66.04899,17.27218 -82.66667,-1.75411 z"
       id="path1" />
  </g>
</svg>
